<?xml version="1.0" encoding="UTF-8"?><svg id="Layer_1" xmlns="http://www.w3.org/2000/svg" width="200mm" height="200mm" viewBox="0 0 566.93 566.93"><rect width="566.93" height="566.93" fill="#231f20" opacity="0"/><path d="M235.46,75.46c0-26.51,21.49-48,48-48s48,21.49,48,48-21.49,48-48,48-48-21.49-48-48Z" fill="#fff"/><path d="M338.52,475.46c-12.73,0-23.06-10.32-23.06-23.06v-241.89c0-12.73-10.32-23.06-23.06-23.06h-81.89c-12.73,0-23.06,10.32-23.06,23.06v17.89c0,12.73,10.32,23.06,23.06,23.06h17.89c12.73,0,23.06,10.32,23.06,23.06v177.89c0,12.73-10.32,23.06-23.06,23.06h-17.89c-12.73,0-23.06,10.32-23.06,23.06v17.89c0,12.73,10.32,23.06,23.06,23.06h145.89c12.73,0,23.06-10.32,23.06-23.06v-17.89c0-12.73-10.32-23.06-23.06-23.06h-17.89Z" fill="#fff"/></svg>