<?xml version="1.0" encoding="UTF-8"?><svg id="Layer_1" xmlns="http://www.w3.org/2000/svg" width="200mm" height="200mm" viewBox="0 0 566.93 566.93"><rect width="566.93" height="566.93" fill="#231f20" opacity="0"/><path d="M405.42,231.09h-21.4c-5.82,0-10.54-4.72-10.54-10.54v-10.65c0-5.82-4.72-10.54-10.54-10.54h-24.39c-7.19,0-12.27,7.04-10,13.87l36.82,110.72c.57,1.7,2.16,2.85,3.95,2.85h0c2.3,0,4.17-1.86,4.17-4.17v-11.9c0-5.82,4.72-10.54,10.54-10.54h21.4c5.82,0,10.54,4.72,10.54,10.54v122.23c0,5.82,4.72,10.54,10.54,10.54h26.77c5.82,0,10.54-4.72,10.54-10.54V103.69c0-5.82-4.72-10.54-10.54-10.54h-26.77c-5.82,0-10.54,4.72-10.54,10.54v116.85c0,5.82-4.72,10.54-10.54,10.54Z" fill="#fff"/><rect x="295.85" y="27.48" width="192.14" height="45.17" rx="10.54" ry="10.54" fill="#fff"/><path d="M401.35,539.46h-58.62c-4.64,0-8.73-3.03-10.09-7.47l-19.92-65.41c-1.35-4.44-5.45-7.47-10.09-7.47h-110.36c-4.64,0-8.73,3.03-10.09,7.47l-19.92,65.41c-1.35,4.44-5.45,7.47-10.09,7.47h-58.62c-7.19,0-12.27-7.04-10-13.87l126.59-380.65c1.43-4.31,5.46-7.22,10-7.22h54.6c4.54,0,8.57,2.91,10,7.22l126.59,380.65c2.27,6.83-2.81,13.87-10,13.87ZM242.61,277.06l-30.36,95.08c-1.05,3.28,1.4,6.63,4.84,6.63h60.71c3.44,0,5.89-3.35,4.84-6.63l-30.36-95.08c-1.51-4.71-8.18-4.71-9.68,0Z" fill="#fff"/></svg>