<?xml version="1.0" encoding="UTF-8"?><svg id="Layer_1" xmlns="http://www.w3.org/2000/svg" width="200mm" height="200mm" viewBox="0 0 566.93 566.93"><rect width="566.93" height="566.93" fill="#231f20" opacity="0"/><path d="M468.74,356.16h-141.89c-4.52,0-7.38-4.85-5.19-8.81L484.11,53.63c6.82-12.34-2.1-27.47-16.2-27.47h-253.1c-10.22,0-18.51,8.29-18.51,18.51v45.47c0,10.22,8.29,18.51,18.51,18.51h127.62c4.52,0,7.38,4.85,5.2,8.8l-132.05,239.33c.04.75.06,1.5.06,2.25,0,15.46-8.55,28.95-21.17,36.01l-3.27,5.93c14.39,6.44,24.44,20.89,24.44,37.65,0,0,0,.01,0,.02h253.1c10.22,0,18.51-8.29,18.51-18.51v-45.47c0-10.22-8.29-18.51-18.51-18.51Z" fill="#fff"/><circle cx="174.4" cy="359.04" r="21.24" fill="#fff"/><circle cx="174.4" cy="438.63" r="21.24" fill="#fff"/><path d="M243.98,137.49v17.08c0,7.75-6.29,14.04-14.04,14.04H92.99c-7.75,0-14.04-6.29-14.04-14.04v-17.08c0-7.75,6.29-14.04,14.04-14.04h136.96c7.75,0,14.04,6.29,14.04,14.04ZM92.99,189.12h136.47c7.75,0,14.04,6.29,14.04,14.04v30.27c0,7.75-6.29,14.04-14.04,14.04h-83.49c-7.75,0-14.04,6.29-14.04,14.04v263.91c0,7.75-6.29,14.04-14.04,14.04h-24.9c-7.75,0-14.04-6.29-14.04-14.04V203.16c0-7.75,6.29-14.04,14.04-14.04Z" fill="#fff"/></svg>