<?xml version="1.0" encoding="UTF-8"?><svg id="Layer_1" xmlns="http://www.w3.org/2000/svg" width="200mm" height="200mm" viewBox="0 0 566.93 566.93"><rect width="566.93" height="566.93" fill="#231f20" opacity="0"/><path d="M319.48,531.7c-2.87,2.87-.84,7.77,3.22,7.77h148.78c9.12,0,16.51-7.39,16.51-16.51v-30.98c0-9.12-7.39-16.51-16.51-16.51h-88.93c-4.38,0-8.58,1.74-11.67,4.84l-51.4,51.4Z" fill="#fff"/><path d="M184.31,475.46h-88.85c-9.12,0-16.51,7.39-16.51,16.51v30.98c0,9.12,7.39,16.51,16.51,16.51h148.71c4.05,0,6.08-4.9,3.22-7.77l-51.4-51.4c-3.1-3.1-7.29-4.84-11.67-4.84Z" fill="#fff"/><path d="M476.9,322.65l-21.91-21.91c-6.45-6.45-16.9-6.45-23.35,0l-106.37,106.37c-3.62,3.62-9.81,1.06-9.81-4.06V43.98c0-9.12-7.39-16.51-16.51-16.51h-30.98c-9.12,0-16.51,7.39-16.51,16.51v359.14c0,5.12-6.19,7.68-9.81,4.06l-106.44-106.44c-6.45-6.45-16.9-6.45-23.35,0l-21.91,21.91c-6.45,6.45-6.45,16.9,0,23.35l181.8,181.8c6.45,6.45,16.9,6.45,23.35,0l181.8-181.8c6.45-6.45,6.45-16.9,0-23.35Z" fill="#fff"/></svg>